<svg width="383" height="219" viewBox="0 0 383 219" fill="none" xmlns="http://www.w3.org/2000/svg">
<g clip-path="url(#clip0_435_299)">
<path d="M321.289 64.9134V154.352L19.8935 203.964V114.525L321.289 64.9134ZM325.194 60.3052L15.9897 111.203V208.574L325.194 157.678V60.3052Z" fill="white"/>
<path d="M383 70.8783L0 133.922V63.0433L383 0V70.8783Z" fill="white"/>
<path d="M312.525 176.12L52.0269 219V216.398L312.525 173.518V176.12Z" fill="white"/>
<path d="M149.183 80.8723V89.205C149.183 99.2397 144.177 105.761 134.522 107.278C124.866 108.798 119.861 103.851 119.861 93.8168V61.2051C119.861 51.1704 124.868 44.6495 134.522 43.13C144.177 41.6122 149.183 46.5569 149.183 56.5915V62.6839L139.886 64.1468V57.4275C139.886 52.9485 137.919 51.5547 134.789 52.0471C131.661 52.5394 129.694 54.5496 129.694 59.0285V92.8941C129.694 97.3748 131.661 98.6783 134.789 98.1841C137.919 97.6918 139.886 95.772 139.886 91.2913V82.3317L149.183 80.8688V80.8723Z" fill="black"/>
<path d="M154.37 55.7768C154.37 45.7421 159.643 39.1787 169.299 37.6609C178.955 36.1414 184.227 41.0454 184.227 51.08V83.6917C184.227 93.7264 178.954 100.29 169.299 101.808C159.645 103.325 154.37 98.4214 154.37 88.3867V55.775V55.7768ZM164.204 87.4676C164.204 91.9483 166.17 93.3403 169.299 92.8479C172.427 92.3556 174.396 90.3455 174.396 85.8648V51.9992C174.396 47.5185 172.429 46.1265 169.299 46.6188C166.17 47.1111 164.204 49.1213 164.204 53.602V87.4676Z" fill="black"/>
<path d="M211.409 76.2801L218.113 30.6992L231.792 28.5474V91.2612L222.494 92.7241V47.7488L215.699 93.7938L206.402 95.2567L199.072 52.0613V96.4096L190.488 97.7591V35.0453L204.167 32.8935L211.407 76.2801H211.409Z" fill="black"/>
<path d="M238.947 27.4226L248.78 25.8748V88.5886L238.947 90.1347V27.4226Z" fill="black"/>
<path d="M264.694 40.663V86.0863L255.844 87.4783V24.7645L268.179 22.8252L278.282 58.7753V21.2348L287.042 19.8569V82.5708L276.939 84.1612L264.692 40.663H264.694Z" fill="black"/>
<path d="M308.858 44.1979L322.627 42.0319V61.9205C322.627 71.9552 317.62 78.4779 307.964 79.9956C298.308 81.5134 293.303 76.5669 293.303 66.5323V33.9206C293.303 23.8859 298.31 17.3632 307.964 15.8455C317.618 14.3277 322.627 19.2742 322.627 29.3088V35.4012L313.329 36.864V30.1448C313.329 25.6658 311.362 24.2738 308.233 24.7644C305.106 25.2567 303.138 27.2668 303.138 31.7475V65.6131C303.138 70.0938 305.105 71.3955 308.233 70.9032C311.362 70.4108 313.329 68.4893 313.329 64.0086V52.4509L308.858 53.1539V44.1943V44.1979Z" fill="black"/>
<path d="M132.732 116.098C142.098 114.625 146.912 119.482 146.912 129.306V131.237L137.809 132.668V130.123C137.809 125.738 136.06 124.347 132.995 124.829C129.931 125.311 128.18 127.252 128.18 131.639C128.18 144.272 147.001 143.676 147.001 161.222C147.001 171.046 142.098 177.432 132.644 178.92C123.191 180.408 118.289 175.564 118.289 165.74V161.968L127.393 160.535V164.922C127.393 169.307 129.32 170.584 132.382 170.102C135.446 169.618 137.371 167.738 137.371 163.353C137.371 150.72 118.552 151.311 118.552 133.768C118.552 123.944 123.366 117.572 132.732 116.098Z" fill="white"/>
<path d="M151.726 128.548C151.726 118.724 156.89 112.299 166.343 110.81C175.796 109.324 180.959 114.125 180.959 123.949V155.879C180.959 165.703 175.796 172.13 166.343 173.617C156.89 175.103 151.726 170.302 151.726 160.478V128.548ZM161.354 159.578C161.354 163.965 163.28 165.329 166.343 164.846C169.407 164.364 171.332 162.394 171.332 158.008V124.849C171.332 120.462 169.405 119.1 166.343 119.582C163.278 120.063 161.354 122.033 161.354 126.42V159.577V159.578Z" fill="white"/>
<path d="M186.385 123.095C186.385 113.271 191.549 106.846 201.001 105.357C210.454 103.871 215.62 108.672 215.62 118.496V150.427C215.62 160.251 210.456 166.677 201.001 168.166C191.549 169.652 186.385 164.851 186.385 155.027V123.095ZM196.013 154.125C196.013 158.512 197.939 159.876 201.001 159.394C204.066 158.911 205.99 156.943 205.99 152.556V119.399C205.99 115.012 204.064 113.649 201.001 114.13C197.937 114.614 196.013 116.581 196.013 120.968V154.125Z" fill="white"/>
<path d="M230.411 118.363V162.837L221.747 164.201V102.796L233.826 100.897L243.718 136.096V99.3405L252.297 97.991V159.396L242.405 160.951L230.413 118.363H230.411Z" fill="white"/>
</g>
<defs>
<clipPath id="clip0_435_299">
<rect width="383" height="219" fill="white"/>
</clipPath>
</defs>
</svg>
