<?xml version="1.0" standalone="no"?>
<!DOCTYPE svg PUBLIC "-//W3C//DTD SVG 20010904//EN"
 "http://www.w3.org/TR/2001/REC-SVG-20010904/DTD/svg10.dtd">
<svg version="1.0" xmlns="http://www.w3.org/2000/svg"
 width="2140.000000pt" height="1073.000000pt" viewBox="0 0 2140.000000 1073.000000"
 preserveAspectRatio="xMidYMid meet">

<g transform="translate(0.000000,1073.000000) scale(0.100000,-0.100000)"
fill="#000000" stroke="none">
<path d="M2485 8039 c-547 -56 -869 -301 -1024 -778 -64 -199 -128 -551 -136
-756 -3 -71 -8 -154 -11 -182 l-5 -53 -219 0 c-200 0 -220 -2 -241 -19 -20
-16 -24 -28 -24 -76 0 -48 4 -60 24 -76 21 -17 42 -19 247 -19 l224 0 0 -1577
c0 -1747 3 -1651 -66 -1792 -47 -95 -146 -199 -258 -271 -82 -53 -112 -85 -98
-107 21 -32 51 -33 892 -33 742 0 845 2 871 16 50 25 36 51 -61 116 -162 108
-260 229 -312 383 l-23 70 -3 1598 -2 1597 338 0 c258 0 342 3 356 13 11 8 19
32 23 69 5 51 3 59 -20 82 l-26 26 -310 0 c-218 0 -318 4 -336 12 -59 27 -170
212 -218 363 -39 126 -52 218 -51 380 1 114 6 172 22 242 88 389 339 617 649
589 231 -21 366 -135 446 -376 47 -140 59 -252 58 -518 -1 -240 -1 -243 19
-229 18 12 451 671 486 739 28 54 20 69 -94 181 -257 250 -549 376 -907 391
-66 2 -160 0 -210 -5z"/>
<path d="M10995 7311 c-196 -56 -347 -222 -391 -431 -47 -223 50 -469 234
-594 216 -147 482 -120 667 68 113 115 165 244 165 411 0 167 -51 287 -169
406 -81 81 -144 118 -246 144 -77 19 -184 18 -260 -4z"/>
<path d="M19695 7205 c-83 -18 -111 -30 -168 -72 -101 -74 -164 -218 -155
-350 7 -97 39 -162 109 -227 85 -79 144 -99 292 -100 64 0 117 -3 117 -6 0 -4
-16 -33 -36 -66 -48 -81 -110 -142 -210 -205 -88 -57 -110 -87 -98 -133 9 -36
40 -56 90 -56 33 0 57 10 120 51 193 126 324 314 368 531 20 95 21 294 2 363
-40 152 -139 248 -280 274 -71 13 -75 13 -151 -4z m175 -197 c50 -34 82 -104
88 -192 4 -70 3 -74 -27 -109 -41 -46 -109 -72 -186 -71 -91 1 -147 38 -180
118 -32 76 6 187 82 238 50 34 58 36 129 37 48 1 68 -4 94 -21z"/>
<path d="M20417 7176 c-49 -18 -145 -91 -159 -121 -14 -32 6 -63 67 -105 l45
-31 0 -353 0 -353 -41 -7 c-81 -13 -116 -90 -65 -141 32 -32 70 -38 233 -33
152 3 187 14 199 63 15 60 -21 102 -95 112 l-40 6 -3 458 c-3 447 -3 458 -24
486 -25 33 -62 39 -117 19z"/>
<path d="M17910 6144 c-246 -31 -452 -108 -618 -234 -86 -64 -163 -143 -283
-289 l-74 -90 -5 260 c-5 243 -6 262 -24 275 -11 8 -28 14 -38 14 -17 0 -304
-119 -988 -409 -119 -51 -223 -101 -233 -113 -17 -20 -17 -22 0 -40 9 -10 44
-33 77 -51 124 -66 217 -190 256 -342 19 -75 20 -109 15 -1173 -6 -1206 -3
-1147 -67 -1261 -44 -77 -149 -183 -237 -241 -122 -79 -122 -80 -119 -103 7
-47 2 -47 887 -47 742 0 838 2 867 16 59 28 43 54 -85 138 -115 76 -194 159
-246 257 -66 127 -65 94 -65 1223 l0 1018 30 89 c78 234 239 466 406 585 79
56 193 109 292 135 109 29 297 29 405 0 194 -51 365 -183 475 -365 100 -164
183 -436 212 -695 15 -131 14 -1795 -1 -1857 -36 -153 -149 -298 -310 -399
-97 -62 -115 -88 -79 -117 21 -17 66 -18 869 -18 828 0 847 1 879 20 31 19 32
21 16 44 -8 14 -50 46 -92 73 -103 63 -208 171 -254 260 -69 129 -68 116 -68
928 0 877 -9 1034 -71 1323 -139 646 -550 1050 -1189 1169 -82 15 -458 27
-540 17z"/>
<path d="M8625 6104 c-350 -47 -681 -192 -944 -415 -239 -202 -376 -523 -341
-803 34 -277 176 -504 443 -708 195 -149 356 -230 877 -437 223 -89 459 -188
525 -221 125 -61 289 -162 338 -208 138 -129 101 -439 -76 -629 -155 -167
-360 -246 -637 -245 -240 0 -421 59 -624 204 -237 168 -409 395 -471 618 -34
124 -45 150 -59 150 -24 0 -67 -61 -250 -354 -207 -332 -212 -345 -153 -390
42 -32 276 -140 432 -199 239 -90 428 -140 705 -187 153 -26 199 -30 372 -30
167 0 217 4 330 25 336 62 596 160 813 306 322 216 485 491 485 818 0 269
-115 506 -338 697 -182 156 -332 238 -926 508 -480 219 -746 359 -833 439 -81
75 -133 201 -133 327 0 176 98 379 220 455 52 32 154 70 245 91 118 28 314 25
419 -5 346 -97 648 -450 722 -841 15 -82 32 -130 44 -130 23 0 76 93 226 392
90 181 164 335 164 344 0 23 -43 57 -153 123 -276 163 -569 265 -881 306 -142
18 -402 18 -541 -1z"/>
<path d="M13645 6109 c-334 -48 -634 -174 -890 -374 -100 -78 -274 -256 -347
-355 -188 -255 -307 -541 -365 -875 -23 -139 -23 -471 0 -610 94 -538 350
-966 764 -1272 396 -293 918 -410 1408 -314 1021 198 1678 1228 1464 2296 -28
141 -98 345 -164 477 -279 560 -793 937 -1395 1023 -113 16 -376 18 -475 4z
m355 -203 c293 -62 525 -350 634 -784 28 -110 69 -353 88 -517 18 -150 17
-696 0 -840 -34 -273 -105 -582 -171 -740 -68 -163 -178 -320 -278 -400 -265
-209 -606 -191 -844 45 -163 161 -250 343 -339 704 -128 526 -145 1005 -50
1476 51 254 142 520 231 676 169 296 446 440 729 380z"/>
<path d="M3980 6073 c-8 -3 -271 -113 -585 -245 -336 -141 -580 -249 -594
-263 -24 -23 -24 -25 -7 -44 10 -10 47 -36 83 -58 127 -74 206 -188 245 -353
6 -27 13 -318 18 -745 6 -585 10 -717 24 -805 70 -430 235 -728 526 -946 290
-218 762 -338 1194 -305 232 18 407 72 560 172 149 98 258 217 371 404 36 61
66 102 69 94 2 -8 7 -63 10 -124 14 -253 80 -400 217 -482 107 -64 128 -66
605 -71 416 -3 481 0 522 27 24 15 -6 48 -100 113 -153 105 -247 227 -292 378
-15 49 -17 216 -23 1639 -6 1550 -7 1585 -26 1604 -27 27 -42 23 -315 -92
-708 -297 -909 -384 -931 -406 -24 -24 -24 -25 -6 -45 10 -12 46 -35 79 -53
77 -41 166 -127 200 -194 55 -109 56 -123 56 -688 -1 -867 -20 -1056 -137
-1350 -119 -300 -251 -469 -436 -560 -124 -61 -197 -78 -332 -77 -188 1 -357
61 -506 179 -192 153 -326 435 -370 779 -7 59 -13 483 -18 1279 -6 1117 -7
1193 -24 1218 -17 26 -42 33 -77 20z"/>
<path d="M11560 6066 c-163 -60 -1140 -483 -1160 -502 -33 -32 -22 -49 58 -92
99 -53 176 -131 222 -226 23 -48 44 -108 50 -146 6 -41 10 -463 10 -1130 0
-876 -3 -1077 -14 -1131 -30 -141 -112 -252 -265 -361 -155 -110 -167 -127
-117 -157 33 -21 39 -21 868 -21 818 0 834 1 867 21 31 18 32 21 19 42 -8 12
-49 45 -92 73 -165 109 -253 212 -303 354 l-26 75 -2 780 c-5 2559 -3 2393
-25 2415 -23 23 -41 24 -90 6z"/>
</g>
</svg>
